<svg xmlns="http://www.w3.org/2000/svg" fill="none" viewBox="0 0 589 820" height="820" width="589">
<mask height="820" width="589" y="0" x="0" maskUnits="userSpaceOnUse" style="mask-type:luminance" id="mask0_124_14">
<path fill="white" d="M588.48 0H0V819.872H588.48V0Z"></path>
</mask>
<g mask="url(#mask0_124_14)">
<path fill="black" d="M192.481 747.513H131.794C130.568 747.513 129.342 746.286 129.342 745.06V678.832C129.342 677.606 130.568 676.379 131.794 676.379H192.481C193.707 676.379 194.933 677.606 194.933 678.832V745.06C195.546 746.899 194.32 747.513 192.481 747.513Z"></path>
</g>
<mask height="820" width="589" y="0" x="0" maskUnits="userSpaceOnUse" style="mask-type:luminance" id="mask1_124_14">
<path fill="white" d="M588.48 0H0V819.872H588.48V0Z"></path>
</mask>
<g mask="url(#mask1_124_14)">
<path fill="black" d="M321.825 251.42C321.825 199.296 278.915 157.597 226.197 157.597C224.358 157.597 109.727 157.597 109.727 157.597V347.081C111.566 348.308 113.405 350.148 114.631 351.374C128.117 366.091 128.73 390.62 117.083 405.95C114.631 409.016 112.179 412.083 109.727 414.535V450.102C110.953 449.489 112.179 448.876 113.405 447.649C114.018 447.036 115.244 446.423 115.857 445.81C116.47 445.196 118.309 443.97 124.439 439.064C136.086 429.866 150.185 418.828 166.123 415.149C171.027 413.922 173.479 413.309 176.544 413.309V210.947H210.872C236.005 210.947 255.008 229.344 255.008 252.646C255.008 275.948 234.779 294.345 209.646 294.345H193.708V370.384L212.711 399.818C214.55 397.979 216.389 396.752 218.228 394.912L218.841 394.299L219.454 393.686C234.166 381.422 250.104 375.903 269.72 375.903C270.333 375.289 270.333 375.29 270.946 374.676L247.652 341.563C290.562 332.364 321.825 295.571 321.825 251.42Z"></path>
</g>
<mask height="820" width="589" y="0" x="0" maskUnits="userSpaceOnUse" style="mask-type:luminance" id="mask2_124_14">
<path fill="white" d="M588.48 0H0V819.872H588.48V0Z"></path>
</mask>
<g mask="url(#mask2_124_14)">
<path fill="black" d="M454.233 157.597H345.732V337.883C347.571 336.657 349.41 335.43 351.249 334.204C354.927 331.751 359.218 329.298 364.122 326.845L364.735 326.232L365.348 325.619C373.317 321.94 383.125 320.1 392.933 320.1C400.289 320.1 407.032 321.326 413.162 323.166V212.174H455.459C473.849 212.174 489.174 229.344 489.174 247.74C489.174 266.137 473.849 281.467 455.459 281.467H433.391V332.977C435.23 334.204 437.069 335.43 438.908 336.657L439.521 337.27L441.36 338.496H473.849C496.53 338.496 513.694 356.893 513.694 379.582C513.694 387.554 511.855 394.299 508.177 400.431C517.372 412.083 529.632 426.8 536.375 438.451V439.064C539.44 444.583 541.892 450.715 543.731 457.461C567.025 440.904 582.35 414.535 582.35 385.101C582.35 348.921 569.477 323.166 526.567 302.93C543.731 286.986 554.765 264.91 554.765 240.995C554.765 219.532 546.183 199.296 532.084 183.966C517.372 166.795 490.4 157.597 454.233 157.597Z"></path>
</g>
<mask height="820" width="589" y="0" x="0" maskUnits="userSpaceOnUse" style="mask-type:luminance" id="mask3_124_14">
<path fill="white" d="M588.48 0H0V819.872H588.48V0Z"></path>
</mask>
<g mask="url(#mask3_124_14)">
<path fill="black" d="M324.278 587.463C325.504 589.303 326.73 591.756 327.956 594.208C329.795 598.501 331.634 601.567 333.473 602.18C334.086 602.18 335.312 602.793 335.925 602.793C340.216 602.793 345.733 600.341 350.024 597.275C352.476 595.435 351.863 594.208 350.637 592.369C350.024 591.756 350.024 591.142 349.411 590.529C348.185 588.076 347.572 586.237 346.959 583.784C345.733 579.491 344.507 576.425 340.216 577.038C334.086 577.652 327.956 578.265 321.213 578.265C321.213 578.265 318.761 578.265 318.148 579.491C317.535 581.331 319.374 582.557 321.213 584.397C322.439 585.623 323.665 586.85 324.278 587.463Z"></path>
</g>
<mask height="820" width="589" y="0" x="0" maskUnits="userSpaceOnUse" style="mask-type:luminance" id="mask4_124_14">
<path fill="white" d="M588.48 0H0V819.872H588.48V0Z"></path>
</mask>
<g mask="url(#mask4_124_14)">
<path fill="black" d="M14.7109 608.312H14.0979C10.4199 609.539 6.12891 614.444 6.12891 616.897C5.51591 629.162 4.90291 630.388 1.83791 634.067C0.611914 635.294 -0.00108501 637.747 1.22492 638.36C1.83792 638.973 14.0979 643.266 15.3239 643.266C16.5499 642.652 17.1629 640.2 19.6149 631.615C20.8409 627.322 22.6799 621.803 23.9059 617.511C23.9059 617.511 23.9059 616.897 22.6799 615.058C22.0669 613.831 17.1629 608.312 14.7109 608.312Z"></path>
</g>
<mask height="820" width="589" y="0" x="0" maskUnits="userSpaceOnUse" style="mask-type:luminance" id="mask5_124_14">
<path fill="white" d="M588.48 0H0V819.872H588.48V0Z"></path>
</mask>
<g mask="url(#mask5_124_14)">
<path fill="black" d="M586.641 588.689C582.963 586.85 579.285 585.01 579.285 585.01C570.703 580.104 565.799 571.519 560.895 563.547C559.056 560.481 557.217 556.802 554.765 554.349C553.539 552.509 551.087 550.057 548.635 548.217C547.409 546.377 545.57 544.538 545.57 543.924C537.601 522.462 529.019 496.707 527.18 468.499C526.567 464.206 524.115 454.395 520.437 448.262C509.403 429.866 482.431 398.592 480.592 396.752C479.366 395.526 478.753 394.912 477.527 393.686L476.914 393.073L428.487 352.6C418.679 345.855 415.614 344.629 408.871 342.176C404.58 340.336 399.063 339.723 393.546 339.723C386.803 339.723 380.06 340.949 373.93 343.402C370.252 345.242 366.574 347.695 362.896 350.148C356.766 353.827 350.023 358.119 343.28 360.572C337.763 363.025 332.246 364.865 326.116 366.704C315.082 370.384 303.435 373.45 294.853 382.035C292.401 384.488 289.949 386.327 288.11 388.167C279.528 396.139 278.915 396.752 272.172 396.752C256.234 396.752 245.2 400.431 233.553 410.243C224.358 418.828 215.163 426.187 204.742 430.479C199.838 432.319 194.934 432.932 188.804 433.545C180.222 434.158 178.996 434.158 171.64 435.998C159.993 438.451 147.733 448.262 137.312 456.234C133.634 458.687 129.343 462.366 127.504 463.593C126.278 464.206 125.052 465.432 123.826 466.046C110.953 473.404 98.6928 480.763 83.3678 480.763C82.7548 480.763 82.7548 480.763 82.1418 480.763C70.4948 480.15 60.0738 472.178 56.3958 461.14C53.3308 449.489 56.3958 437.224 66.2038 427.413C70.4948 423.12 76.0118 418.828 80.9158 414.535C88.8848 407.79 96.2408 401.658 101.758 394.299C107.888 386.327 107.275 372.223 100.532 364.865C93.7888 357.506 78.4638 353.827 72.9468 352.6H71.7208C71.1078 352.6 69.8818 352.6 69.8818 351.987C66.2038 351.374 62.5258 350.761 59.4608 350.148C50.2658 347.695 43.5228 340.949 35.5538 336.657C31.2628 340.949 30.6498 345.855 30.6498 351.374C32.4888 363.638 42.2968 375.903 53.3308 380.808C53.9438 380.808 54.5568 381.422 54.5568 381.422C58.2348 382.648 61.9128 383.261 64.9778 383.261C65.5908 383.261 66.2038 383.261 67.4298 383.261C68.0428 383.261 68.6558 383.261 69.8818 383.261C72.3338 383.261 74.7858 383.261 77.2378 383.875C79.6898 384.488 81.5288 386.327 82.1418 389.393C82.1418 391.233 81.5288 392.46 79.6898 393.686C77.8508 395.526 76.0118 396.752 74.1728 398.592C64.3648 406.564 54.5568 414.535 46.5878 424.347C35.5538 435.998 35.5538 456.234 40.4578 469.112C46.5878 486.282 64.3648 496.093 79.0768 497.933C81.5288 498.546 84.5938 498.546 87.0458 498.546C95.6278 498.546 104.21 496.707 112.179 494.254H112.792C113.405 494.254 114.018 494.254 114.018 496.093C114.018 499.773 114.631 503.452 114.631 507.745C114.631 513.877 115.244 520.009 115.857 522.462C117.083 527.981 119.535 534.726 121.374 539.632C121.987 541.472 122.6 543.311 123.213 543.924C123.826 546.377 123.213 549.443 121.374 550.67C115.244 556.189 102.984 560.481 100.532 561.094C96.8538 561.708 93.1758 561.708 90.1108 561.708C88.8848 561.708 87.6588 561.708 87.0458 561.708C85.8198 561.708 84.5938 562.321 83.3678 563.547C81.5288 565.387 79.6898 570.293 77.2378 575.812C76.0118 579.491 74.7858 582.557 72.9468 585.623C69.2688 591.755 62.5258 596.048 56.3958 599.727C54.5568 600.34 53.3308 601.567 51.4918 602.18C49.0398 606.473 46.5878 610.152 42.9098 613.218C40.4578 615.671 36.7798 616.284 33.7148 616.284C28.8108 621.803 26.9718 629.162 25.7458 636.52C25.7458 637.747 25.1328 638.973 25.1328 639.586V640.813H25.7458C28.1978 640.813 30.6498 641.426 33.7148 642.039C37.3928 642.653 41.0708 643.879 44.7488 643.879C48.4268 643.879 51.4918 643.266 53.9438 641.426C58.8478 638.973 61.2998 634.681 63.7518 631.001C65.5908 628.548 66.8168 625.482 69.2688 623.03C70.4948 621.803 72.3338 621.19 74.1728 621.19C76.0118 621.19 77.8508 621.803 79.6898 622.416C81.5288 623.03 83.3678 623.643 85.2068 623.643C93.7888 624.256 101.758 618.737 106.049 615.671C107.888 614.444 109.727 612.605 110.953 610.765C113.405 608.312 116.47 605.859 118.922 604.02C122.6 602.18 126.891 601.567 131.795 601.567C138.538 601.567 145.281 602.793 150.798 604.02C153.863 604.633 156.928 605.246 159.993 605.246C165.51 605.246 170.414 604.02 174.092 601.567C178.996 599.114 183.9 596.048 187.578 594.208C190.03 592.982 191.869 591.755 193.708 591.142C200.451 587.463 206.581 577.038 208.42 572.746C210.259 568.453 213.937 559.868 213.937 559.868V559.255L205.968 553.123L205.355 553.736C205.355 553.736 199.838 562.321 196.773 566.613C182.674 586.236 159.38 588.689 140.99 588.689C139.764 588.689 138.538 588.689 137.312 588.689C114.018 588.689 95.6278 596.661 82.1418 611.378C81.5288 611.992 80.3028 611.992 79.6898 611.378C79.6898 610.765 79.0768 610.152 79.6898 609.539C80.3028 607.699 80.3028 607.699 80.9158 605.859C95.6278 585.623 120.148 582.557 139.764 581.944C154.476 580.717 164.897 578.265 174.092 573.972C185.739 567.84 194.934 554.349 197.999 543.924C200.451 537.179 201.677 529.82 202.29 522.462C202.903 516.943 204.129 510.811 205.355 505.292C205.355 504.678 206.581 504.065 207.194 504.065H207.807C208.42 504.065 210.259 504.678 210.259 505.905C208.42 516.943 205.355 532.273 210.872 545.151C213.324 550.057 218.228 552.509 226.197 552.509C231.101 552.509 236.618 551.896 241.522 550.67C245.813 550.057 249.491 549.443 252.556 549.443C253.782 549.443 255.621 549.443 256.847 549.443C263.59 549.443 269.72 550.67 275.85 551.896C281.367 553.123 286.271 554.349 292.401 554.349C293.627 554.349 294.24 554.349 295.466 554.349C297.305 554.349 299.144 554.962 301.596 554.962C306.5 554.962 309.565 553.736 312.017 551.896C313.856 550.67 313.243 548.217 312.63 545.764V545.151C312.63 544.538 312.63 543.924 312.017 543.924C310.791 540.245 309.565 535.339 312.017 532.886C312.63 532.886 313.243 532.273 313.243 532.273C313.856 532.273 314.469 532.273 314.469 532.886C314.469 534.113 315.082 534.726 315.082 535.953C316.308 540.245 317.534 544.538 319.986 548.217C325.503 555.576 334.698 562.321 345.119 567.84C351.862 572.746 360.444 580.718 361.057 592.369C361.057 597.274 356.153 600.954 352.475 603.407C346.345 606.473 337.763 610.152 331.633 609.539C327.955 609.539 324.89 607.086 324.89 607.086C319.373 601.567 319.986 600.34 316.308 593.595C314.469 590.529 312.017 586.85 309.565 583.784C305.887 580.104 301.596 578.265 295.466 578.878C289.949 579.491 284.432 580.717 277.689 581.944C276.463 581.944 275.237 583.17 274.624 584.397C274.011 585.623 274.011 587.463 275.237 588.689C278.302 594.821 281.98 599.727 285.045 605.859L286.271 608.312C286.884 609.539 288.723 610.152 289.949 610.152C290.562 610.152 291.788 610.152 292.401 610.152C293.627 610.152 294.24 610.152 295.466 610.152C298.531 610.152 300.37 610.765 301.596 612.605C302.822 614.444 303.435 615.671 304.661 617.511C307.113 621.803 308.952 625.482 313.243 628.548C316.921 631.615 321.825 633.454 326.729 633.454C329.181 633.454 331.02 632.841 333.472 632.228C348.797 627.322 363.509 622.416 377.608 615.058H382.512C383.738 615.058 384.351 615.058 385.577 615.058C390.481 614.444 395.385 614.444 399.063 610.765C403.354 604.02 407.645 597.888 410.71 590.529C413.775 584.397 413.775 578.265 410.71 573.359C401.515 559.255 400.289 554.962 396.611 545.151C395.385 544.538 394.772 544.538 393.546 543.924C391.094 543.311 389.255 542.085 386.19 542.085H385.577C382.512 542.085 380.673 543.311 379.447 545.151L395.998 577.038C397.224 579.491 398.45 581.944 397.837 585.623C397.224 589.303 389.255 602.18 386.803 603.407C386.19 604.02 385.577 604.02 385.577 604.02C385.577 604.02 384.351 604.02 384.964 602.18C386.19 597.274 388.642 584.397 388.029 580.717C387.416 576.425 373.93 553.736 373.317 552.509V551.896C371.478 548.217 369.026 545.151 369.026 540.858C369.026 539.019 370.865 537.792 372.091 537.179C374.543 536.566 376.995 535.953 379.447 535.339C384.964 534.113 391.094 532.886 393.546 529.207C400.289 519.396 403.967 508.971 406.419 494.867C406.419 494.254 407.032 493.027 407.645 493.027C408.258 493.027 408.871 493.027 408.871 494.254C411.323 507.745 408.258 521.849 399.676 533.5C399.063 534.113 399.063 535.339 399.063 536.566C399.063 537.792 400.289 538.405 400.289 538.405C403.354 540.245 415.001 539.019 422.97 534.726C429.1 534.726 435.23 533.5 440.747 532.886C442.586 532.273 444.425 532.273 446.264 531.66C446.877 532.273 447.49 532.273 447.49 532.886C442.586 538.405 439.521 544.538 438.295 552.509C437.069 553.736 435.23 554.962 434.004 556.802C428.487 561.708 422.97 567.227 422.97 573.972C422.97 573.972 422.97 576.425 425.422 576.425C426.035 576.425 427.261 575.812 427.874 575.812C429.1 575.199 429.713 575.199 430.939 575.199C431.552 575.199 432.165 575.812 432.778 577.038L426.648 585.623C424.196 589.303 425.422 592.982 426.035 597.274C426.648 599.114 426.648 600.954 427.261 602.793C428.487 607.086 434.004 609.539 438.295 609.539C446.264 608.925 453.62 606.473 460.363 604.02C461.589 603.407 462.815 603.407 464.041 602.793C471.397 599.727 481.818 599.114 494.078 600.954C503.886 600.34 511.242 594.208 517.985 587.463C521.05 587.463 524.115 589.303 527.18 592.982C537.601 604.02 550.474 609.539 566.412 609.539C567.025 609.539 567.638 609.539 568.251 609.539H570.09C571.929 608.925 571.929 608.312 572.542 607.086C572.542 605.859 571.929 604.633 570.09 604.02L560.895 599.114C553.539 594.822 546.183 589.303 543.731 581.944C541.279 573.972 536.988 566.613 533.923 561.094C533.31 559.868 532.697 559.255 532.084 558.028C530.858 556.189 529.632 554.349 528.406 552.509C538.214 556.189 543.731 563.547 550.474 575.199C555.378 584.397 568.251 593.595 580.511 593.595C582.35 593.595 583.576 593.595 585.415 592.982C586.641 592.982 587.867 591.755 587.867 590.529C588.48 590.529 587.867 589.303 586.641 588.689ZM412.549 443.97C412.549 445.196 411.936 445.81 411.323 445.81C411.323 445.81 410.097 445.81 410.097 444.583C407.645 431.706 405.806 424.96 403.354 419.441C402.128 417.602 401.515 415.762 400.289 414.535C397.837 411.469 395.998 409.016 398.45 405.337C399.063 404.111 400.902 403.498 402.128 403.498C402.741 403.498 403.967 403.497 404.58 404.111C407.032 405.337 409.484 408.403 411.936 413.309C417.453 426.187 412.549 443.97 412.549 443.97ZM494.078 573.359C494.078 573.359 493.465 577.038 492.239 578.878C490.4 580.104 483.657 581.331 480.592 581.331C477.527 581.331 476.301 580.717 475.688 579.491C475.075 578.265 476.301 576.425 476.301 576.425C476.914 575.812 480.592 567.84 487.948 565.387C487.948 565.387 490.4 564.774 492.852 565.387C495.304 566.613 494.078 572.746 494.078 573.359ZM516.146 522.462C515.533 525.528 514.92 526.754 514.307 527.368C513.694 527.981 513.081 529.82 511.242 529.82C508.79 529.82 508.79 526.754 508.79 526.754C508.79 526.754 508.79 518.782 506.951 515.716C505.112 512.037 497.143 501.612 492.852 502.226C491.626 502.226 488.561 504.065 486.109 507.131C483.657 510.811 483.657 510.811 482.431 511.424C481.818 512.037 480.592 511.424 479.979 509.584C479.366 507.745 479.366 505.905 479.979 501.612C481.205 497.32 481.818 496.707 483.044 493.641C483.044 493.641 485.496 488.122 486.109 486.895C488.561 483.216 491.626 483.216 491.626 483.216C492.239 483.216 495.304 482.603 498.369 486.895C502.047 491.188 501.434 491.188 502.047 492.414C503.273 494.254 503.886 495.48 506.951 498.546C510.016 501.612 513.081 507.745 514.307 512.037C516.759 516.33 516.759 519.396 516.146 522.462Z"></path>
</g>
<mask height="820" width="589" y="0" x="0" maskUnits="userSpaceOnUse" style="mask-type:luminance" id="mask6_124_14">
<path fill="white" d="M588.48 0H0V819.872H588.48V0Z"></path>
</mask>
<g mask="url(#mask6_124_14)">
<path fill="black" d="M27.5859 608.312C28.1989 608.925 30.0379 610.152 31.8769 610.152C33.1029 610.152 34.3289 609.539 35.5549 608.925C42.2979 605.246 49.0409 592.982 49.6539 592.369C50.2669 590.529 47.8149 588.689 45.3629 586.236H44.7499C43.5239 585.01 41.0719 585.623 39.8459 586.236C38.6199 586.85 38.0069 587.463 36.7809 588.076C33.1029 590.529 29.4249 592.982 25.7469 596.048C24.5209 597.274 23.9079 599.114 23.2949 600.954C23.2949 602.18 23.2949 603.406 23.9079 604.02C24.5209 604.633 26.9729 607.699 27.5859 608.312Z"></path>
</g>
<mask height="820" width="589" y="0" x="0" maskUnits="userSpaceOnUse" style="mask-type:luminance" id="mask7_124_14">
<path fill="white" d="M588.48 0H0V819.872H588.48V0Z"></path>
</mask>
<g mask="url(#mask7_124_14)">
<path fill="black" d="M280.142 119.578L305.275 1.83984H275.238L250.105 119.578H280.142Z"></path>
</g>
<mask height="820" width="589" y="0" x="0" maskUnits="userSpaceOnUse" style="mask-type:luminance" id="mask8_124_14">
<path fill="white" d="M588.48 0H0V819.872H588.48V0Z"></path>
</mask>
<g mask="url(#mask8_124_14)">
<path fill="black" d="M417.452 119.577L423.582 101.794H462.201L465.879 119.577H494.077L469.557 2.45288H443.811C438.294 2.45288 433.39 6.13219 430.938 11.0379L386.189 119.577H417.452ZM448.715 33.727L457.91 77.8787H432.777L448.715 33.727Z"></path>
</g>
<mask height="820" width="589" y="0" x="0" maskUnits="userSpaceOnUse" style="mask-type:luminance" id="mask9_124_14">
<path fill="white" d="M588.48 0H0V819.872H588.48V0Z"></path>
</mask>
<g mask="url(#mask9_124_14)">
<path fill="black" d="M337.762 96.8884C322.437 96.8884 313.855 92.5959 306.499 89.5298L300.982 115.285C308.338 118.351 321.211 121.417 334.697 121.417C366.573 121.417 387.415 105.473 387.415 81.558C387.415 50.8971 344.505 49.0574 345.118 34.9534C345.118 30.6609 349.409 26.3684 357.991 25.1419C362.282 24.5287 374.542 23.9155 388.028 30.6609L392.932 4.90574C385.576 2.45287 376.381 0 364.734 0C334.697 0 313.855 15.9437 313.242 38.6327C313.242 55.8028 328.567 65.0011 339.601 70.5201C351.248 76.039 355.539 79.7183 355.539 85.2373C355.539 93.2091 346.344 96.2752 337.762 96.8884Z"></path>
</g>
<mask height="820" width="589" y="0" x="0" maskUnits="userSpaceOnUse" style="mask-type:luminance" id="mask10_124_14">
<path fill="white" d="M588.48 0H0V819.872H588.48V0Z"></path>
</mask>
<g mask="url(#mask10_124_14)">
<path fill="black" d="M156.928 25.7552L180.835 119.577H212.711L261.751 2.45288H229.875L198.612 82.1712L185.739 14.104C184.513 6.74541 178.383 2.45288 171.64 2.45288H120.148L119.535 6.13219C129.956 8.58506 142.216 12.2644 149.572 15.9437C153.863 17.7833 155.089 20.2362 156.928 25.7552Z"></path>
</g>
<mask height="820" width="589" y="0" x="0" maskUnits="userSpaceOnUse" style="mask-type:luminance" id="mask11_124_14">
<path fill="white" d="M588.48 0H0V819.872H588.48V0Z"></path>
</mask>
<g mask="url(#mask11_124_14)">
<path fill="black" d="M284.431 721.144L280.753 718.691C280.14 718.078 278.914 718.691 278.301 719.305C275.849 722.984 271.558 725.437 267.267 724.824C258.685 724.824 253.781 718.078 253.781 708.88C253.781 699.682 258.685 692.936 267.267 692.936C271.558 692.936 275.849 694.776 278.301 698.455C278.914 699.068 279.527 699.068 280.753 699.068L284.431 696.616C285.044 696.002 285.044 694.776 285.044 694.163C280.753 688.644 274.623 684.964 267.267 685.578C254.394 685.578 245.199 695.389 245.199 709.493C245.199 723.597 254.394 733.409 267.267 733.409C274.623 733.409 280.753 730.343 285.044 724.21C285.657 722.984 285.044 721.757 284.431 721.144Z"></path>
</g>
<mask height="820" width="589" y="0" x="0" maskUnits="userSpaceOnUse" style="mask-type:luminance" id="mask12_124_14">
<path fill="white" d="M588.48 0H0V819.872H588.48V0Z"></path>
</mask>
<g mask="url(#mask12_124_14)">
<path fill="black" d="M304.048 697.842C299.757 697.842 295.466 699.068 291.175 700.908C290.562 701.521 289.949 702.135 290.562 703.361L291.788 706.427C292.401 707.04 293.014 707.654 294.24 707.04C297.305 705.814 300.37 704.587 303.435 704.587C306.5 704.587 309.565 705.201 309.565 708.267C309.565 711.333 305.274 711.946 300.37 712.559C296.079 713.172 288.723 714.399 288.723 722.984C288.723 729.729 293.627 733.409 300.37 733.409C305.274 733.409 307.726 731.569 310.178 729.116V730.956C310.178 731.569 310.791 732.795 312.017 732.795H316.308C316.921 732.795 318.147 732.182 318.147 730.956V709.493C317.534 700.908 312.017 697.842 304.048 697.842ZM308.952 719.305C308.952 724.21 305.274 726.663 301.596 726.663C298.531 726.663 296.079 725.437 296.079 722.371C296.079 719.305 298.531 718.078 301.596 717.465C304.661 716.852 307.726 716.239 308.952 715.625V719.305Z"></path>
</g>
<mask height="820" width="589" y="0" x="0" maskUnits="userSpaceOnUse" style="mask-type:luminance" id="mask13_124_14">
<path fill="white" d="M588.48 0H0V819.872H588.48V0Z"></path>
</mask>
<g mask="url(#mask13_124_14)">
<path fill="black" d="M337.763 711.333C334.085 710.72 330.407 710.106 330.407 707.654C330.407 705.201 332.859 704.588 335.924 704.588C338.989 704.588 342.054 705.814 344.506 707.654C345.119 708.267 346.345 708.267 346.958 707.654L348.797 705.201C349.41 704.587 349.41 703.361 348.797 702.748C345.119 699.682 340.828 698.455 335.924 698.455C328.568 698.455 322.438 701.521 322.438 708.88C322.438 716.239 328.568 718.078 334.698 719.305C340.828 720.531 343.28 721.144 343.28 723.597C343.28 726.663 340.828 727.277 337.15 727.277C333.472 727.277 330.407 726.05 327.342 724.21C326.729 723.597 325.503 723.597 324.89 724.21L322.438 726.663C321.825 727.277 321.825 728.503 322.438 729.116C326.116 732.182 331.02 733.409 335.924 733.409C345.119 733.409 350.636 729.116 350.636 721.758C350.636 715.012 345.732 712.559 337.763 711.333Z"></path>
</g>
<mask height="820" width="589" y="0" x="0" maskUnits="userSpaceOnUse" style="mask-type:luminance" id="mask14_124_14">
<path fill="white" d="M588.48 0H0V819.872H588.48V0Z"></path>
</mask>
<g mask="url(#mask14_124_14)">
<path fill="black" d="M373.931 697.842C369.64 697.842 365.962 699.682 363.51 702.748V688.031C363.51 687.417 362.897 686.191 361.671 686.191H356.767C355.541 686.191 354.928 686.804 354.928 688.031V730.343C354.928 730.956 355.541 732.182 356.767 732.182H361.671C362.897 732.182 363.51 731.569 363.51 730.343V713.173C363.51 708.267 366.575 705.201 371.479 705.201C376.383 705.201 376.996 708.267 376.996 711.946V730.956C376.996 731.569 377.609 732.795 378.835 732.795H383.739C384.965 732.795 385.578 732.182 385.578 730.956V710.106C384.965 702.748 381.287 697.842 373.931 697.842Z"></path>
</g>
<mask height="820" width="589" y="0" x="0" maskUnits="userSpaceOnUse" style="mask-type:luminance" id="mask15_124_14">
<path fill="white" d="M588.48 0H0V819.872H588.48V0Z"></path>
</mask>
<g mask="url(#mask15_124_14)">
<path fill="black" d="M431.552 687.417C431.552 686.804 430.939 686.191 429.713 686.191H421.744C421.131 686.191 420.518 686.804 419.905 687.417L403.967 729.729V730.343C403.967 731.569 404.58 732.182 405.806 732.182H411.323C411.936 732.182 412.549 731.569 413.162 730.956L416.84 720.531H434.004L437.682 730.956C437.682 731.569 438.295 732.182 439.521 732.182H445.651H446.264C446.877 731.569 447.49 730.956 447.49 730.343L431.552 687.417ZM419.292 713.786L426.035 694.163L432.778 713.786H419.292Z"></path>
</g>
<mask height="820" width="589" y="0" x="0" maskUnits="userSpaceOnUse" style="mask-type:luminance" id="mask16_124_14">
<path fill="white" d="M588.48 0H0V819.872H588.48V0Z"></path>
</mask>
<g mask="url(#mask16_124_14)">
<path fill="black" d="M469.558 697.842C465.267 697.842 461.589 699.682 459.137 702.748V700.295C459.137 699.682 458.524 698.455 457.298 698.455H452.394C451.781 698.455 450.555 699.068 450.555 700.295V741.994C450.555 743.22 451.168 743.833 452.394 743.833H457.298C458.524 743.833 459.137 743.22 459.137 741.994V727.89C461.589 730.956 465.267 733.409 469.558 732.795C478.753 732.795 484.883 724.824 484.883 715.012C484.883 705.201 478.753 697.842 469.558 697.842ZM467.719 726.05C462.202 726.05 459.137 721.144 459.137 715.625C459.137 709.493 462.202 705.201 467.719 705.201C473.236 705.201 476.301 710.106 476.301 715.625C476.301 721.144 473.236 726.05 467.719 726.05Z"></path>
</g>
<mask height="820" width="589" y="0" x="0" maskUnits="userSpaceOnUse" style="mask-type:luminance" id="mask17_124_14">
<path fill="white" d="M588.48 0H0V819.872H588.48V0Z"></path>
</mask>
<g mask="url(#mask17_124_14)">
<path fill="black" d="M508.179 697.842C503.888 697.842 500.21 699.682 497.758 702.748V700.295C497.758 699.682 497.145 698.455 495.919 698.455H491.015C490.402 698.455 489.176 699.068 489.176 700.295V741.994C489.176 743.22 489.789 743.833 491.015 743.833H496.532C497.145 743.833 498.371 743.22 498.371 741.994V727.89C500.823 730.956 504.501 733.409 508.792 732.795C517.987 732.795 524.117 724.824 524.117 715.012C523.504 705.201 517.374 697.842 508.179 697.842ZM506.34 726.05C500.823 726.05 497.758 721.144 497.758 715.625C497.758 709.493 500.823 705.201 506.34 705.201C511.857 705.201 514.922 710.106 514.922 715.625C514.922 721.144 512.47 726.05 506.34 726.05Z"></path>
</g>
<mask height="91" width="91" y="664" x="117" maskUnits="userSpaceOnUse" style="mask-type:luminance" id="mask18_124_14">
<path fill="white" d="M161.218 724.824C166.122 724.824 169.187 722.984 169.187 719.305C169.187 715.626 166.122 715.012 159.379 712.559C152.636 710.107 146.506 707.04 146.506 699.069C146.506 689.87 153.862 685.578 163.057 684.965L164.283 680.672C164.283 680.059 165.509 679.446 166.122 679.446H172.865C172.865 679.446 172.865 679.446 173.478 679.446C174.704 679.446 175.317 680.672 174.704 681.285L173.478 686.191C177.156 687.418 180.221 689.257 182.673 691.097C183.286 691.71 183.286 692.936 182.673 693.55L178.995 697.229C178.382 697.842 177.156 697.842 176.543 697.229C172.865 694.163 169.187 692.936 164.283 692.936C160.605 692.936 156.927 694.163 156.927 697.229C156.927 700.295 160.605 701.522 165.509 703.361C173.478 705.814 180.221 709.493 180.221 716.852C180.221 725.437 173.478 730.956 163.057 731.569L161.831 735.862C161.831 736.475 160.605 737.088 159.992 737.088H153.249C153.249 737.088 153.249 737.088 152.636 737.088C151.41 737.088 150.797 735.862 151.41 734.635L152.636 729.73C148.345 728.503 144.667 726.663 141.602 723.597C140.989 722.984 140.989 721.758 141.602 721.145L145.28 717.465C145.893 716.852 147.119 716.852 147.732 717.465C152.023 722.984 156.314 724.824 161.218 724.824ZM148.958 664.728C139.763 664.728 135.472 664.728 130.568 665.955C125.051 667.795 120.76 672.087 118.921 677.606C117.082 682.512 117.082 686.804 117.082 696.003V722.984C117.082 732.182 117.082 736.475 118.308 741.381C120.147 746.9 124.438 751.192 129.955 753.032C134.859 754.871 139.15 754.871 148.345 754.871H175.93C185.125 754.871 189.416 754.871 194.32 753.032C199.837 751.192 204.128 746.9 205.967 741.381C207.806 736.475 207.806 732.182 207.806 722.984V696.003C207.806 686.804 207.806 682.512 205.967 677.606C204.128 672.087 199.837 667.795 194.32 665.955C189.416 664.115 185.125 664.115 175.93 664.115H148.958V664.728Z"></path>
</mask>
<g mask="url(#mask18_124_14)">
<path fill="url(#paint0_linear_124_14)" d="M207.806 664.728H117.695V754.871H207.806V664.728Z"></path>
</g>
<path fill="black" d="M115.857 795.957V819.872H119.535V810.061H129.343V806.382H119.535V799.636H129.343V795.957H115.857Z"></path>
<mask height="820" width="589" y="0" x="0" maskUnits="userSpaceOnUse" style="mask-type:luminance" id="mask19_124_14">
<path fill="white" d="M588.48 0.000244141H0V819.873H588.48V0.000244141Z"></path>
</mask>
<g mask="url(#mask19_124_14)">
<path fill="black" d="M148.959 819.873C147.12 819.873 145.894 819.873 144.055 818.646C142.829 818.033 140.99 817.42 140.377 816.193C139.151 814.967 138.538 813.74 137.925 812.514C137.312 811.288 136.699 809.448 136.699 807.608C136.699 805.769 136.699 804.542 137.925 802.703C138.538 801.476 139.151 800.25 140.377 799.023C141.603 797.797 142.829 797.184 144.055 796.57C145.281 795.957 147.12 795.344 148.959 795.344C150.798 795.344 152.637 795.957 153.863 796.57C155.089 797.184 156.928 797.797 157.541 799.023C158.767 800.25 159.38 801.476 159.993 802.703C160.606 803.929 160.606 805.769 160.606 807.608C160.606 809.448 159.993 810.674 159.993 812.514C159.38 813.74 158.767 814.967 157.541 816.193C156.315 817.42 155.089 818.033 153.863 818.646C152.637 819.873 150.798 819.873 148.959 819.873ZM148.959 816.806C150.185 816.806 151.411 816.807 152.024 816.193C153.25 815.58 153.863 814.967 154.476 814.354C155.089 813.74 155.702 812.514 156.315 811.288C156.928 810.061 156.928 808.835 156.928 807.608C156.928 806.382 156.928 805.155 156.315 803.929C155.702 802.703 155.089 802.089 154.476 801.476C153.863 800.863 152.637 800.25 152.024 799.636C150.798 799.023 149.572 799.023 148.959 799.023C147.733 799.023 146.507 799.023 145.281 799.636C144.055 800.25 143.442 800.863 142.829 801.476C142.216 802.089 141.603 803.316 140.99 803.929C140.377 805.155 140.377 806.382 140.377 807.608C140.377 808.835 140.377 810.061 140.99 811.288C141.603 812.514 142.216 813.127 142.829 814.354C143.442 814.967 144.668 815.58 145.281 816.193C147.12 816.193 147.733 816.806 148.959 816.806Z"></path>
</g>
<mask height="820" width="589" y="0" x="0" maskUnits="userSpaceOnUse" style="mask-type:luminance" id="mask20_124_14">
<path fill="white" d="M588.48 0.000244141H0V819.873H588.48V0.000244141Z"></path>
</mask>
<g mask="url(#mask20_124_14)">
<path fill="black" d="M171.027 795.957H178.383C180.835 795.957 182.674 796.571 183.9 797.797C185.126 799.023 185.739 800.863 185.739 802.703C185.739 804.542 185.126 805.769 184.513 806.995C183.9 808.222 182.674 808.835 180.835 809.448L186.965 819.26H183.9L178.383 810.061H175.318V819.26H171.64V795.957H171.027ZM178.383 807.608C179.609 807.608 180.835 806.995 181.448 806.382C182.061 805.769 182.674 804.542 182.674 803.316C182.674 802.089 182.061 800.863 181.448 800.25C180.835 799.637 179.609 799.023 178.383 799.023H174.705V806.995H178.383V807.608Z"></path>
</g>
<mask height="820" width="589" y="0" x="0" maskUnits="userSpaceOnUse" style="mask-type:luminance" id="mask21_124_14">
<path fill="white" d="M588.48 0.000244141H0V819.873H588.48V0.000244141Z"></path>
</mask>
<g mask="url(#mask21_124_14)">
<path fill="black" d="M220.067 795.957V819.873H217.002V801.476L210.259 819.873H207.194L200.451 801.476V819.873H196.773V795.957H201.677L208.42 814.967L215.163 795.957H220.067Z"></path>
</g>
<mask height="820" width="589" y="0" x="0" maskUnits="userSpaceOnUse" style="mask-type:luminance" id="mask22_124_14">
<path fill="white" d="M588.48 0.000244141H0V819.873H588.48V0.000244141Z"></path>
</mask>
<g mask="url(#mask22_124_14)">
<path fill="black" d="M240.295 819.873C239.069 819.873 237.843 819.873 236.617 819.26C235.391 818.646 234.778 818.033 233.552 817.42C232.939 816.807 232.326 815.58 231.713 814.354C231.1 813.127 231.1 811.901 231.1 810.674V795.957H234.778V810.061C234.778 811.901 235.391 813.127 236.004 814.354C237.23 815.58 238.456 816.193 239.682 816.193C241.521 816.193 242.747 815.58 243.36 814.354C244.586 813.127 244.586 811.901 244.586 810.061V795.957H248.264V810.061C248.264 811.288 248.264 813.127 247.651 813.741C247.038 814.967 246.425 816.193 245.812 816.807C245.199 817.42 243.973 818.033 242.747 818.646C242.747 819.873 241.521 819.873 240.295 819.873Z"></path>
</g>
<mask height="820" width="589" y="0" x="0" maskUnits="userSpaceOnUse" style="mask-type:luminance" id="mask23_124_14">
<path fill="white" d="M588.48 0.000244141H0V819.873H588.48V0.000244141Z"></path>
</mask>
<g mask="url(#mask23_124_14)">
<path fill="black" d="M259.912 795.957H263.59V816.193H272.785V819.873H259.912V795.957Z"></path>
</g>
<mask height="820" width="589" y="0" x="0" maskUnits="userSpaceOnUse" style="mask-type:luminance" id="mask24_124_14">
<path fill="white" d="M588.48 0.000244141H0V819.873H588.48V0.000244141Z"></path>
</mask>
<g mask="url(#mask24_124_14)">
<path fill="black" d="M294.239 814.354H284.431L282.592 819.873H278.914L287.496 796.57H291.174L299.756 819.873H296.078L294.239 814.354ZM285.657 811.288H293.626L289.948 800.25L285.657 811.288Z"></path>
</g>
<mask height="820" width="589" y="0" x="0" maskUnits="userSpaceOnUse" style="mask-type:luminance" id="mask25_124_14">
<path fill="white" d="M588.48 0.000244141H0V819.873H588.48V0.000244141Z"></path>
</mask>
<g mask="url(#mask25_124_14)">
<path fill="black" d="M334.084 819.873C332.245 819.873 331.019 819.873 329.18 818.646C327.954 818.033 326.115 817.42 325.502 816.193C324.276 814.967 323.663 813.74 323.05 812.514C322.437 811.288 321.824 809.448 321.824 807.608C321.824 805.769 321.824 804.542 323.05 802.703C323.663 801.476 324.276 800.25 325.502 799.023C326.728 797.797 327.954 797.184 329.18 796.57C330.406 795.957 332.245 795.344 334.084 795.344C335.923 795.344 337.762 795.957 338.988 796.57C340.214 797.184 342.053 797.797 342.666 799.023C343.892 800.25 344.505 801.476 345.118 802.703C345.731 803.929 346.344 805.769 346.344 807.608C346.344 809.448 345.731 810.674 345.118 812.514C344.505 813.74 343.892 814.967 342.666 816.193C341.44 817.42 340.214 818.033 338.988 818.646C337.762 819.873 335.923 819.873 334.084 819.873ZM334.084 816.806C335.31 816.806 336.536 816.807 337.149 816.193C338.375 815.58 338.988 814.967 339.601 814.354C340.214 813.74 340.827 812.514 341.44 811.288C342.053 810.061 342.053 808.835 342.053 807.608C342.053 806.382 342.053 805.155 341.44 803.929C340.827 802.703 340.214 802.089 339.601 801.476C338.988 800.863 337.762 800.25 337.149 799.636C335.923 799.023 334.697 799.023 334.084 799.023C332.858 799.023 331.632 799.023 330.406 799.636C329.18 800.25 328.567 800.863 327.954 801.476C327.341 802.089 326.728 803.316 326.115 803.929C325.502 805.155 325.502 806.382 325.502 807.608C325.502 808.835 325.502 810.061 326.115 811.288C326.728 812.514 327.341 813.127 327.954 814.354C328.567 814.967 329.793 815.58 330.406 816.193C331.632 816.193 332.858 816.806 334.084 816.806Z"></path>
</g>
<mask height="820" width="589" y="0" x="0" maskUnits="userSpaceOnUse" style="mask-type:luminance" id="mask26_124_14">
<path fill="white" d="M588.48 0.000244141H0V819.873H588.48V0.000244141Z"></path>
</mask>
<g mask="url(#mask26_124_14)">
<path fill="black" d="M373.929 795.957V819.873H370.251L359.83 802.089V819.873H356.152V795.957H359.83L370.251 813.741V795.957H373.929Z"></path>
</g>
<mask height="820" width="589" y="0" x="0" maskUnits="userSpaceOnUse" style="mask-type:luminance" id="mask27_124_14">
<path fill="white" d="M588.48 0.000244141H0V819.873H588.48V0.000244141Z"></path>
</mask>
<g mask="url(#mask27_124_14)">
<path fill="black" d="M384.965 795.957H398.451V799.637H388.643V805.769H398.451V808.835H388.643V816.193H399.064V819.873H384.965V795.957Z"></path>
</g>
<mask height="820" width="589" y="0" x="0" maskUnits="userSpaceOnUse" style="mask-type:luminance" id="mask28_124_14">
<path fill="white" d="M588.48 0.000244141H0V819.873H588.48V0.000244141Z"></path>
</mask>
<g mask="url(#mask28_124_14)">
<path fill="black" d="M427.261 799.637H421.131V795.957H438.295V799.637H430.939V819.873H427.261V799.637Z"></path>
</g>
<mask height="820" width="589" y="0" x="0" maskUnits="userSpaceOnUse" style="mask-type:luminance" id="mask29_124_14">
<path fill="white" d="M588.48 0.000244141H0V819.873H588.48V0.000244141Z"></path>
</mask>
<g mask="url(#mask29_124_14)">
<path fill="black" d="M446.877 795.957H460.976V799.637H450.555V805.769H460.363V808.835H450.555V816.193H461.589V819.873H446.877V795.957Z"></path>
</g>
<mask height="820" width="589" y="0" x="0" maskUnits="userSpaceOnUse" style="mask-type:luminance" id="mask30_124_14">
<path fill="white" d="M588.48 0.000244141H0V819.873H588.48V0.000244141Z"></path>
</mask>
<g mask="url(#mask30_124_14)">
<path fill="black" d="M484.27 814.354H474.462L472.623 819.873H468.945L477.527 796.57H481.205L489.787 819.873H486.109L484.27 814.354ZM475.688 811.288H483.657L479.979 800.25L475.688 811.288Z"></path>
</g>
<mask height="820" width="589" y="0" x="0" maskUnits="userSpaceOnUse" style="mask-type:luminance" id="mask31_124_14">
<path fill="white" d="M588.48 0.000244141H0V819.873H588.48V0.000244141Z"></path>
</mask>
<g mask="url(#mask31_124_14)">
<path fill="black" d="M522.276 795.957V819.873H519.211V801.476L512.468 819.873H509.403L502.66 801.476V819.873H498.982V795.957H503.886L510.629 814.967L517.372 795.957H522.276Z"></path>
</g>
<defs>
<linearGradient gradientUnits="userSpaceOnUse" y2="709.363" x2="207.435" y1="709.363" x1="117.419" id="paint0_linear_124_14">
<stop stop-color="#00B03C"></stop>
<stop stop-color="#02B03C" offset="0.5687"></stop>
<stop stop-color="#09B13C" offset="0.814"></stop>
<stop stop-color="#16B33C" offset="0.9969"></stop>
<stop stop-color="#16B33C" offset="1"></stop>
</linearGradient>
</defs>
</svg>
